<mxfile host="app.diagrams.net" modified="2023-11-22T06:20:57.713Z" agent="Mozilla/5.0 (Macintosh; Intel Mac OS X 10_15_7) AppleWebKit/537.36 (KHTML, like Gecko) Chrome/121.0.0.0 Safari/537.36 Edg/121.0.0.0" version="22.1.3" etag="nZFD_AJFSlQ7CHfci9ro" type="github">
  <diagram name="Page-1" id="_ypiO95nCATNML_D_guY">
    <mxGraphModel>
      <root>
        <mxCell id="0" />
        <mxCell id="1" parent="0" />
      </root>
    </mxGraphModel>
  </diagram>
</mxfile>
